<mxfile host="app.diagrams.net" modified="2024-05-28T16:23:07.093Z" agent="Mozilla/5.0 (Macintosh; Intel Mac OS X 10_15_7) AppleWebKit/537.36 (KHTML, like Gecko) Chrome/125.0.0.0 Safari/537.36" etag="NAqbMY6mosS57TPUvxQd" version="24.4.9" type="device">
  <diagram name="페이지-1" id="JcNlcYKHB3xMiS3gRA-C">
    <mxGraphModel dx="1038" dy="505" grid="1" gridSize="10" guides="1" tooltips="1" connect="1" arrows="1" fold="1" page="1" pageScale="1" pageWidth="827" pageHeight="1169" math="0" shadow="0">
      <root>
        <mxCell id="0" />
        <mxCell id="1" parent="0" />
        <mxCell id="EWZgyk7HS7TaSTe0Ovl4-24" style="edgeStyle=orthogonalEdgeStyle;rounded=0;orthogonalLoop=1;jettySize=auto;html=1;" edge="1" parent="1" source="EWZgyk7HS7TaSTe0Ovl4-20" target="EWZgyk7HS7TaSTe0Ovl4-23">
          <mxGeometry relative="1" as="geometry" />
        </mxCell>
        <mxCell id="EWZgyk7HS7TaSTe0Ovl4-48" style="edgeStyle=orthogonalEdgeStyle;rounded=0;orthogonalLoop=1;jettySize=auto;html=1;" edge="1" parent="1" source="EWZgyk7HS7TaSTe0Ovl4-20" target="EWZgyk7HS7TaSTe0Ovl4-46">
          <mxGeometry relative="1" as="geometry" />
        </mxCell>
        <mxCell id="EWZgyk7HS7TaSTe0Ovl4-20" value="&lt;b&gt;IDLE&lt;/b&gt;&lt;div&gt;isArrived = 0&lt;/div&gt;" style="html=1;align=center;verticalAlign=top;rounded=1;absoluteArcSize=1;arcSize=10;dashed=0;whiteSpace=wrap;" vertex="1" parent="1">
          <mxGeometry x="40" y="150" width="100" height="60" as="geometry" />
        </mxCell>
        <mxCell id="EWZgyk7HS7TaSTe0Ovl4-33" style="edgeStyle=orthogonalEdgeStyle;rounded=0;orthogonalLoop=1;jettySize=auto;html=1;" edge="1" parent="1" source="EWZgyk7HS7TaSTe0Ovl4-23" target="EWZgyk7HS7TaSTe0Ovl4-26">
          <mxGeometry relative="1" as="geometry" />
        </mxCell>
        <mxCell id="EWZgyk7HS7TaSTe0Ovl4-23" value="&lt;b&gt;Detect Box&lt;/b&gt;" style="html=1;align=center;verticalAlign=top;rounded=1;absoluteArcSize=1;arcSize=10;dashed=0;whiteSpace=wrap;" vertex="1" parent="1">
          <mxGeometry x="220" y="150" width="100" height="60" as="geometry" />
        </mxCell>
        <mxCell id="EWZgyk7HS7TaSTe0Ovl4-28" style="edgeStyle=orthogonalEdgeStyle;rounded=0;orthogonalLoop=1;jettySize=auto;html=1;" edge="1" parent="1" source="EWZgyk7HS7TaSTe0Ovl4-26" target="EWZgyk7HS7TaSTe0Ovl4-27">
          <mxGeometry relative="1" as="geometry" />
        </mxCell>
        <mxCell id="EWZgyk7HS7TaSTe0Ovl4-38" style="edgeStyle=orthogonalEdgeStyle;rounded=0;orthogonalLoop=1;jettySize=auto;html=1;entryX=0.5;entryY=0;entryDx=0;entryDy=0;" edge="1" parent="1" source="EWZgyk7HS7TaSTe0Ovl4-26" target="EWZgyk7HS7TaSTe0Ovl4-23">
          <mxGeometry relative="1" as="geometry">
            <Array as="points">
              <mxPoint x="440" y="120" />
              <mxPoint x="270" y="120" />
            </Array>
          </mxGeometry>
        </mxCell>
        <mxCell id="EWZgyk7HS7TaSTe0Ovl4-26" value="&lt;b&gt;Move to Box&lt;/b&gt;" style="html=1;align=center;verticalAlign=top;rounded=1;absoluteArcSize=1;arcSize=10;dashed=0;whiteSpace=wrap;" vertex="1" parent="1">
          <mxGeometry x="390" y="150" width="100" height="60" as="geometry" />
        </mxCell>
        <mxCell id="EWZgyk7HS7TaSTe0Ovl4-31" style="edgeStyle=orthogonalEdgeStyle;rounded=0;orthogonalLoop=1;jettySize=auto;html=1;" edge="1" parent="1" source="EWZgyk7HS7TaSTe0Ovl4-27" target="EWZgyk7HS7TaSTe0Ovl4-30">
          <mxGeometry relative="1" as="geometry" />
        </mxCell>
        <mxCell id="EWZgyk7HS7TaSTe0Ovl4-27" value="&lt;b&gt;Lift Box&lt;/b&gt;&lt;div&gt;isArrived = 0&lt;/div&gt;" style="html=1;align=center;verticalAlign=top;rounded=1;absoluteArcSize=1;arcSize=10;dashed=0;whiteSpace=wrap;" vertex="1" parent="1">
          <mxGeometry x="570" y="150" width="100" height="60" as="geometry" />
        </mxCell>
        <mxCell id="EWZgyk7HS7TaSTe0Ovl4-29" value="isArrived" style="text;html=1;align=center;verticalAlign=middle;whiteSpace=wrap;rounded=0;" vertex="1" parent="1">
          <mxGeometry x="498" y="151" width="60" height="30" as="geometry" />
        </mxCell>
        <mxCell id="EWZgyk7HS7TaSTe0Ovl4-39" style="edgeStyle=orthogonalEdgeStyle;rounded=0;orthogonalLoop=1;jettySize=auto;html=1;" edge="1" parent="1" source="EWZgyk7HS7TaSTe0Ovl4-30" target="EWZgyk7HS7TaSTe0Ovl4-32">
          <mxGeometry relative="1" as="geometry" />
        </mxCell>
        <mxCell id="EWZgyk7HS7TaSTe0Ovl4-30" value="&lt;b&gt;Detect Dest.&lt;/b&gt;" style="html=1;align=center;verticalAlign=top;rounded=1;absoluteArcSize=1;arcSize=10;dashed=0;whiteSpace=wrap;" vertex="1" parent="1">
          <mxGeometry x="570" y="310" width="100" height="60" as="geometry" />
        </mxCell>
        <mxCell id="EWZgyk7HS7TaSTe0Ovl4-41" style="edgeStyle=orthogonalEdgeStyle;rounded=0;orthogonalLoop=1;jettySize=auto;html=1;" edge="1" parent="1" source="EWZgyk7HS7TaSTe0Ovl4-32" target="EWZgyk7HS7TaSTe0Ovl4-40">
          <mxGeometry relative="1" as="geometry" />
        </mxCell>
        <mxCell id="EWZgyk7HS7TaSTe0Ovl4-50" style="edgeStyle=orthogonalEdgeStyle;rounded=0;orthogonalLoop=1;jettySize=auto;html=1;entryX=0.5;entryY=1;entryDx=0;entryDy=0;exitX=0.5;exitY=1;exitDx=0;exitDy=0;" edge="1" parent="1" source="EWZgyk7HS7TaSTe0Ovl4-32" target="EWZgyk7HS7TaSTe0Ovl4-30">
          <mxGeometry relative="1" as="geometry">
            <Array as="points">
              <mxPoint x="440" y="400" />
              <mxPoint x="620" y="400" />
            </Array>
          </mxGeometry>
        </mxCell>
        <mxCell id="EWZgyk7HS7TaSTe0Ovl4-32" value="&lt;b&gt;Move to Dest.&lt;/b&gt;" style="html=1;align=center;verticalAlign=top;rounded=1;absoluteArcSize=1;arcSize=10;dashed=0;whiteSpace=wrap;" vertex="1" parent="1">
          <mxGeometry x="390" y="310" width="100" height="60" as="geometry" />
        </mxCell>
        <mxCell id="EWZgyk7HS7TaSTe0Ovl4-35" value="Check Proximity" style="text;html=1;align=center;verticalAlign=middle;whiteSpace=wrap;rounded=0;" vertex="1" parent="1">
          <mxGeometry x="304" y="90" width="110" height="30" as="geometry" />
        </mxCell>
        <mxCell id="EWZgyk7HS7TaSTe0Ovl4-44" style="edgeStyle=orthogonalEdgeStyle;rounded=0;orthogonalLoop=1;jettySize=auto;html=1;entryX=0.75;entryY=1;entryDx=0;entryDy=0;" edge="1" parent="1" source="EWZgyk7HS7TaSTe0Ovl4-40" target="EWZgyk7HS7TaSTe0Ovl4-20">
          <mxGeometry relative="1" as="geometry" />
        </mxCell>
        <mxCell id="EWZgyk7HS7TaSTe0Ovl4-40" value="&lt;b&gt;Leave Box&lt;/b&gt;&lt;div&gt;isArrived = 0&lt;/div&gt;" style="html=1;align=center;verticalAlign=top;rounded=1;absoluteArcSize=1;arcSize=10;dashed=0;whiteSpace=wrap;" vertex="1" parent="1">
          <mxGeometry x="220" y="310" width="100" height="60" as="geometry" />
        </mxCell>
        <mxCell id="EWZgyk7HS7TaSTe0Ovl4-42" value="isArrived" style="text;html=1;align=center;verticalAlign=middle;whiteSpace=wrap;rounded=0;" vertex="1" parent="1">
          <mxGeometry x="323" y="311" width="69" height="30" as="geometry" />
        </mxCell>
        <mxCell id="EWZgyk7HS7TaSTe0Ovl4-46" value="&lt;b&gt;Stop / Reset&lt;/b&gt;" style="html=1;align=center;verticalAlign=top;rounded=1;absoluteArcSize=1;arcSize=10;dashed=0;whiteSpace=wrap;" vertex="1" parent="1">
          <mxGeometry x="40" y="410" width="100" height="60" as="geometry" />
        </mxCell>
        <mxCell id="EWZgyk7HS7TaSTe0Ovl4-49" value="UI Triggered&lt;div&gt;Stop&lt;/div&gt;" style="text;html=1;align=center;verticalAlign=middle;whiteSpace=wrap;rounded=0;" vertex="1" parent="1">
          <mxGeometry x="10" y="280" width="69" height="30" as="geometry" />
        </mxCell>
        <mxCell id="EWZgyk7HS7TaSTe0Ovl4-51" value="Check Proximity" style="text;html=1;align=center;verticalAlign=middle;whiteSpace=wrap;rounded=0;" vertex="1" parent="1">
          <mxGeometry x="473" y="400" width="110" height="30" as="geometry" />
        </mxCell>
      </root>
    </mxGraphModel>
  </diagram>
</mxfile>
